<?xml version="1.0" encoding="utf-8"?>
<!-- Generator: Adobe Illustrator 28.0.0, SVG Export Plug-In . SVG Version: 6.00 Build 0)  -->
<svg version="1.1" id="레이어_1" xmlns="http://www.w3.org/2000/svg" xmlns:xlink="http://www.w3.org/1999/xlink" x="0px"
	 y="0px" viewBox="0 0 47.751 72.419" style="enable-background:new 0 0 47.751 72.419;" xml:space="preserve">
<style type="text/css">
	.st0{fill:#FFFFFF;}
	.st1{fill:#CCCCCC;}
	.st2{fill:#7CDA32;}
</style>
<g>
	<g>
		<path class="st0" d="M10.919,0.355c2.775,0,5.394,1.068,7.378,3.005l25.915,25.291c2.023,1.976,3.184,4.73,3.184,7.557
			c0,2.829-1.162,5.584-3.187,7.559L18.297,69.059c-1.988,1.939-4.583,3.006-7.306,3.006l-0.201-0.002
			c-2.826-0.035-5.465-1.166-7.43-3.186c-1.972-2.02-3.04-4.686-3.005-7.505c0.033-2.821,1.163-5.461,3.184-7.433l18.165-17.73
			L3.539,18.477C-0.628,14.41-0.708,7.71,3.359,3.54C5.365,1.486,8.05,0.355,10.919,0.355z"/>
		<path class="st1" d="M10.991,71.709l-0.197-0.002c-2.73-0.033-5.281-1.128-7.18-3.078c-1.905-1.952-2.936-4.529-2.903-7.254
			c0.032-2.726,1.125-5.277,3.077-7.183l18.426-17.984L3.788,18.224C-0.24,14.293-0.318,7.817,3.613,3.789
			C5.551,1.803,8.145,0.71,10.919,0.71c2.68,0,5.212,1.031,7.13,2.903l25.915,25.291c1.955,1.91,3.076,4.572,3.076,7.304
			c0,2.734-1.122,5.397-3.079,7.306L18.049,68.805C16.129,70.678,13.622,71.709,10.991,71.709 M10.987,72.419h0.004
			c2.817,0,5.5-1.103,7.554-3.106l25.913-25.292c2.093-2.042,3.293-4.89,3.293-7.814c0-2.922-1.199-5.77-3.29-7.812L18.545,3.105
			C16.494,1.103,13.785,0,10.919,0C7.953,0,5.177,1.169,3.105,3.293C-1.1,7.602-1.016,14.528,3.292,18.732l17.905,17.476
			L3.292,53.684c-2.088,2.038-3.257,4.767-3.291,7.683c-0.036,2.915,1.067,5.671,3.105,7.758c2.032,2.087,4.76,3.257,7.68,3.292
			l0.198,0.002L10.987,72.419L10.987,72.419z"/>
	</g>
	<path class="st2" d="M28.313,36.208L6.763,57.241c-1.137,1.11-1.774,2.597-1.793,4.185c-0.019,1.589,0.582,3.091,1.692,4.228
		c1.107,1.137,2.594,1.775,4.184,1.794c0.048,0.001,0.097,0.002,0.145,0.002c1.511,0,2.98-0.618,4.084-1.694l25.911-25.29
		c1.141-1.113,1.794-2.665,1.794-4.257c0-1.592-0.653-3.144-1.793-4.257L15.074,6.662C13.956,5.57,12.48,4.97,10.919,4.97
		c-1.617,0-3.129,0.638-4.258,1.794c-2.291,2.348-2.245,6.121,0.102,8.411L28.313,36.208z"/>
</g>
</svg>
