<?xml version="1.0" encoding="utf-8"?>
<!-- Generator: Adobe Illustrator 28.0.0, SVG Export Plug-In . SVG Version: 6.00 Build 0)  -->
<svg version="1.1" id="레이어_1" xmlns="http://www.w3.org/2000/svg" xmlns:xlink="http://www.w3.org/1999/xlink" x="0px"
	 y="0px" viewBox="0 0 47.751 72.419" style="enable-background:new 0 0 47.751 72.419;" xml:space="preserve">
<style type="text/css">
	.st0{fill:#FFFFFF;}
	.st1{fill:#CCCCCC;}
	.st2{fill:#40D3CA;}
</style>
<g>
	<g>
		<path class="st0" d="M36.832,72.064c-2.775,0-5.394-1.068-7.378-3.005L3.538,43.768c-2.023-1.976-3.184-4.73-3.184-7.557
			c0-2.829,1.162-5.584,3.187-7.559L29.453,3.36c1.988-1.939,4.583-3.006,7.306-3.006l0.201,0.002
			c2.826,0.035,5.465,1.166,7.43,3.186c1.972,2.02,3.04,4.686,3.005,7.505c-0.033,2.821-1.163,5.461-3.184,7.433l-18.165,17.73
			l18.165,17.731c4.167,4.067,4.247,10.767,0.18,14.937C42.385,70.933,39.701,72.064,36.832,72.064z"/>
		<path class="st1" d="M36.759,0.71l0.197,0.002c2.73,0.033,5.281,1.128,7.18,3.078c1.905,1.952,2.936,4.529,2.903,7.254
			c-0.032,2.726-1.125,5.277-3.077,7.183L25.537,36.211l18.426,17.984c4.027,3.931,4.106,10.407,0.175,14.435
			c-1.938,1.985-4.532,3.079-7.306,3.079c-2.68,0-5.212-1.031-7.13-2.903L3.786,43.515c-1.955-1.91-3.076-4.572-3.076-7.304
			c0-2.734,1.122-5.397,3.079-7.306L29.701,3.614C31.622,1.741,34.129,0.71,36.759,0.71 M36.764,0h-0.004
			c-2.817,0-5.5,1.103-7.554,3.106L3.293,28.397C1.2,30.439,0,33.287,0,36.211c0,2.922,1.199,5.77,3.29,7.812l25.916,25.291
			c2.052,2.002,4.76,3.105,7.626,3.105c2.967,0,5.742-1.169,7.814-3.293c4.204-4.309,4.12-11.235-0.187-15.439L26.553,36.211
			l17.905-17.476c2.088-2.038,3.257-4.767,3.291-7.683c0.036-2.915-1.067-5.671-3.105-7.758c-2.032-2.087-4.76-3.256-7.68-3.292
			L36.768,0L36.764,0L36.764,0z"/>
	</g>
	<path class="st2" d="M19.438,36.211l21.549-21.032c1.137-1.11,1.774-2.597,1.793-4.185c0.019-1.589-0.582-3.091-1.692-4.228
		c-1.107-1.137-2.594-1.775-4.184-1.794C36.856,4.97,36.808,4.97,36.759,4.97c-1.511,0-2.98,0.618-4.084,1.694L6.764,31.954
		c-1.141,1.113-1.794,2.665-1.794,4.257s0.653,3.144,1.793,4.257l25.914,25.29c1.118,1.091,2.594,1.692,4.155,1.692
		c1.617,0,3.129-0.638,4.258-1.794c2.291-2.348,2.245-6.121-0.102-8.411L19.438,36.211z"/>
</g>
</svg>
