<?xml version="1.0" encoding="utf-8"?>
<!-- Generator: Adobe Illustrator 28.0.0, SVG Export Plug-In . SVG Version: 6.00 Build 0)  -->
<svg version="1.1" id="레이어_1" xmlns="http://www.w3.org/2000/svg" xmlns:xlink="http://www.w3.org/1999/xlink" x="0px"
	 y="0px" viewBox="0 0 24.387 24.387" style="enable-background:new 0 0 24.387 24.387;" xml:space="preserve">
<style type="text/css">
	.st0{fill:#FFF0F4;}
	.st1{fill:#F3C3D1;}
</style>
<g>
	<g>
		<path class="st0" d="M24.387,24.387H12.194C5.487,24.387,0,18.9,0,12.194v0C0,5.487,5.487,0,12.194,0h0
			C18.9,0,24.387,5.487,24.387,12.194V24.387z"/>
	</g>
	<g>
		<path class="st1" d="M12.985,11.087c0.738-0.457,1.301-1.09,1.301-2.021c0-1.107-0.844-1.793-1.898-1.793
			c-0.949,0-1.863,0.58-1.951,1.881H8.537c0.07-2.232,1.758-3.463,3.85-3.463c2.285,0,3.814,1.371,3.814,3.375
			c0,1.406-0.668,2.355-1.793,3.041c-1.055,0.633-1.459,1.283-1.494,2.707v0.105h-1.793v-0.105
			C11.139,12.51,11.824,11.807,12.985,11.087z M10.84,17.468c-0.018-0.686,0.562-1.248,1.248-1.248c0.668,0,1.248,0.562,1.248,1.248
			s-0.58,1.248-1.248,1.248C11.402,18.716,10.822,18.153,10.84,17.468z"/>
	</g>
</g>
</svg>
