<?xml version="1.0" encoding="UTF-8"?>
<svg xmlns="http://www.w3.org/2000/svg" viewBox="0 0 1280 750">
  <defs>
    <style>
      .cls-1 {
        fill: #f6f6f8;
      }

      .cls-1, .cls-2, .cls-3, .cls-4, .cls-5, .cls-6, .cls-7, .cls-8 {
        stroke-width: 0px;
      }

      .cls-2 {
        fill: #bebec2;
      }

      .cls-3 {
        fill: #c9c9cf;
      }

      .cls-9 {
        stroke: #aeaeb8;
        stroke-linecap: round;
        stroke-miterlimit: 10;
        stroke-width: 5px;
      }

      .cls-9, .cls-4 {
        fill: none;
      }

      .cls-5 {
        fill: #fff739;
      }

      .cls-6 {
        fill: #fff;
      }

      .cls-7 {
        fill: #d6d6d7;
      }

      .cls-8 {
        fill: #dfdfe3;
      }
    </style>
  </defs>
  <g id="_배경" data-name="배경">
    <path class="cls-1" d="m0,0v750h1280V0H0Zm1195,665.574c0,18.566-15.452,34.236-34.019,34.236H120.141c-18.566,0-35.141-15.67-35.141-34.236V116.19c0-18.566,16.16-34.236,34.726-34.236h1041.255c18.567,0,34.019,15.669,34.019,34.236v549.384Z"/>
    <g>
      <polygon class="cls-8" points="1242.819 644.385 1242.819 750 1244.335 750 1244.335 643.773 1203.862 600.574 1203.862 602.76 1242.819 644.385"/>
      <rect class="cls-8" x="1203.968" y="515.231" width="76.032" height="1.516"/>
      <rect class="cls-6" y="494.638" width="72.597" height="1.516"/>
      <polygon class="cls-6" points="1241.24 645.33 1241.24 750 1242.756 750 1242.756 644.72 1203.862 602.97 1203.862 605.159 1241.24 645.33"/>
      <rect class="cls-6" x="1203.968" y="513.617" width="76.032" height="1.516"/>
      <rect class="cls-8" y="496.334" width="72.597" height="1.516"/>
    </g>
    <polygon class="cls-8" points="178.922 750 181.066 750 148.715 717.548 146.571 717.548 178.922 750"/>
    <polygon class="cls-6" points="176.763 750 178.908 750 146.518 717.548 144.374 717.548 176.763 750"/>
    <g>
      <polygon class="cls-4" points="89.065 6.564 124.967 43.008 124.967 52.129 124.984 52.129 124.984 42.972 89.065 6.564"/>
      <polygon class="cls-8" points="126.483 42.386 84.891 0 82.747 0 89.065 6.564 124.984 42.972 124.984 52.129 126.483 52.129 126.483 42.386"/>
      <polygon class="cls-6" points="89.065 6.564 82.747 0 80.595 0 123.467 43.594 123.467 52.129 124.967 52.129 124.967 43.008 89.065 6.564"/>
    </g>
    <g>
      <polygon class="cls-6" points="1227.219 0 1171.209 56.078 1172.725 56.706 1229.364 0 1227.219 0"/>
      <polygon class="cls-6" points="1224.969 0 1169.63 55.246 1171.146 55.876 1227.116 0 1224.969 0"/>
    </g>
  </g>
  <g id="_테두리" data-name="테두리">
    <g>
      <g>
        <g>
          <path class="cls-3" d="m334.375,32.506c-1.586-1.987-3.99-3.144-6.533-3.144h-186.321c-4.616,0-8.358,3.742-8.358,8.358v42.568h239.313l-38.102-47.782Z"/>
          <line class="cls-9" x1="316.204" y1="43.101" x2="327.195" y2="57.09"/>
          <line class="cls-9" x1="296.043" y1="43.101" x2="307.035" y2="57.09"/>
        </g>
        <g>
          <path class="cls-3" d="m945.625,32.506c1.586-1.987,3.99-3.144,6.533-3.144h186.321c4.616,0,8.358,3.742,8.358,8.358v42.568h-239.313s38.102-47.782,38.102-47.782Z"/>
          <line class="cls-9" x1="963.796" y1="43.101" x2="952.805" y2="57.09"/>
          <line class="cls-9" x1="983.957" y1="43.101" x2="972.965" y2="57.09"/>
        </g>
      </g>
      <g>
        <path class="cls-7" d="m1190.817,49.721h-158.744c-3.157,0-6.285.611-9.211,1.798l-37.602,15.263c-2.926,1.188-6.054,1.798-9.211,1.798H303.952c-3.157,0-6.285-.611-9.211-1.798l-37.603-15.263c-2.926-1.188-6.054-1.798-9.211-1.798H89.183c-13.526,0-24.49,10.965-24.49,24.49v593.169c0,29.414,23.845,53.259,53.259,53.259h1044.096c29.414,0,53.259-23.845,53.259-53.259V74.21c0-13.525-10.965-24.49-24.49-24.49Zm4.183,615.853c0,18.566-15.452,34.236-34.019,34.236H120.141c-18.566,0-35.141-15.67-35.141-34.236V116.19c0-18.566,16.16-34.236,34.726-34.236h1041.255c18.567,0,34.019,15.67,34.019,34.236v549.384Z"/>
        <path class="cls-2" d="m85,71.649c2.289,0,4.145-1.856,4.145-4.145s-1.856-4.145-4.145-4.145-4.145,1.856-4.145,4.145,1.856,4.145,4.145,4.145Z"/>
        <path class="cls-5" d="m106.347,71.649c2.289,0,4.145-1.856,4.145-4.145s-1.856-4.145-4.145-4.145-4.145,1.856-4.145,4.145,1.856,4.145,4.145,4.145Z"/>
        <path class="cls-2" d="m127.694,71.649c2.289,0,4.145-1.856,4.145-4.145s-1.856-4.145-4.145-4.145-4.145,1.856-4.145,4.145,1.856,4.145,4.145,4.145Z"/>
      </g>
    </g>
  </g>
</svg>